<mxfile modified="2021-09-21T21:21:57.032Z" host="drawio-plugin" agent="5.0 (Windows NT 6.2; Win64; x64) AppleWebKit/537.36 (KHTML, like Gecko) Chrome/89.0.4389.114 Safari/537.36" etag="4scW-fENsSGEasAYW2ci" version="14.7.4" type="embed"><diagram id="f106602c-feb2-e66a-4537-3a34d633f6aa" name="Page-1"><mxGraphModel dx="1244" dy="642" grid="1" gridSize="10" guides="1" tooltips="1" connect="1" arrows="1" fold="1" page="1" pageScale="1" pageWidth="1169" pageHeight="827" background="none" math="0" shadow="0"><root><mxCell id="0"/><mxCell id="1" parent="0"/><mxCell id="dV1n4wa-xcsjoLgTKaDh-1084" value="Server" style="sketch=0;points=[[0,0,0],[0.25,0,0],[0.5,0,0],[0.75,0,0],[1,0,0],[1,0.25,0],[1,0.5,0],[1,0.75,0],[1,1,0],[0.75,1,0],[0.5,1,0],[0.25,1,0],[0,1,0],[0,0.75,0],[0,0.5,0],[0,0.25,0]];rounded=1;absoluteArcSize=1;arcSize=2;html=1;shadow=0;dashed=0;fontSize=12;align=left;verticalAlign=top;spacing=10;spacingTop=-4;" parent="1" vertex="1"><mxGeometry x="10" y="10" width="1150" height="440" as="geometry"/></mxCell><mxCell id="dV1n4wa-xcsjoLgTKaDh-1034" style="edgeStyle=orthogonalEdgeStyle;rounded=0;orthogonalLoop=1;jettySize=auto;html=1;entryX=0;entryY=0.5;entryDx=0;entryDy=0;fontColor=#4D4D4D;" parent="1" source="dV1n4wa-xcsjoLgTKaDh-1005" target="dV1n4wa-xcsjoLgTKaDh-1039" edge="1"><mxGeometry relative="1" as="geometry"><mxPoint x="400" y="84" as="targetPoint"/></mxGeometry></mxCell><mxCell id="dV1n4wa-xcsjoLgTKaDh-1043" style="edgeStyle=orthogonalEdgeStyle;rounded=0;orthogonalLoop=1;jettySize=auto;html=1;entryX=0;entryY=0.5;entryDx=0;entryDy=0;fontColor=#4D4D4D;" parent="1" source="dV1n4wa-xcsjoLgTKaDh-1005" target="dV1n4wa-xcsjoLgTKaDh-1041" edge="1"><mxGeometry relative="1" as="geometry"/></mxCell><mxCell id="dV1n4wa-xcsjoLgTKaDh-1044" style="edgeStyle=orthogonalEdgeStyle;rounded=0;orthogonalLoop=1;jettySize=auto;html=1;entryX=0;entryY=0.5;entryDx=0;entryDy=0;fontColor=#4D4D4D;" parent="1" source="dV1n4wa-xcsjoLgTKaDh-1005" target="dV1n4wa-xcsjoLgTKaDh-1045" edge="1"><mxGeometry relative="1" as="geometry"><mxPoint x="370" y="226" as="targetPoint"/></mxGeometry></mxCell><mxCell id="dV1n4wa-xcsjoLgTKaDh-1005" value="" style="shadow=1;strokeWidth=1;rounded=1;absoluteArcSize=1;arcSize=2;fillColor=#F5F5F5;" parent="1" vertex="1"><mxGeometry x="270" y="58" width="100" height="51.25" as="geometry"/></mxCell><mxCell id="dV1n4wa-xcsjoLgTKaDh-1061" style="edgeStyle=orthogonalEdgeStyle;rounded=0;orthogonalLoop=1;jettySize=auto;html=1;entryX=0;entryY=0.5;entryDx=0;entryDy=0;fontColor=#4D4D4D;" parent="1" source="dV1n4wa-xcsjoLgTKaDh-1007" target="dV1n4wa-xcsjoLgTKaDh-1015" edge="1"><mxGeometry relative="1" as="geometry"/></mxCell><mxCell id="dV1n4wa-xcsjoLgTKaDh-1062" style="edgeStyle=orthogonalEdgeStyle;rounded=0;orthogonalLoop=1;jettySize=auto;html=1;entryX=0;entryY=0.5;entryDx=0;entryDy=0;fontColor=#4D4D4D;" parent="1" source="dV1n4wa-xcsjoLgTKaDh-1007" target="dV1n4wa-xcsjoLgTKaDh-1019" edge="1"><mxGeometry relative="1" as="geometry"/></mxCell><mxCell id="dV1n4wa-xcsjoLgTKaDh-1063" style="edgeStyle=orthogonalEdgeStyle;rounded=0;orthogonalLoop=1;jettySize=auto;html=1;entryX=0;entryY=0.5;entryDx=0;entryDy=0;fontColor=#4D4D4D;" parent="1" source="dV1n4wa-xcsjoLgTKaDh-1007" target="dV1n4wa-xcsjoLgTKaDh-1025" edge="1"><mxGeometry relative="1" as="geometry"/></mxCell><mxCell id="dV1n4wa-xcsjoLgTKaDh-1064" style="edgeStyle=orthogonalEdgeStyle;rounded=0;orthogonalLoop=1;jettySize=auto;html=1;entryX=0;entryY=0.5;entryDx=0;entryDy=0;fontColor=#4D4D4D;" parent="1" source="dV1n4wa-xcsjoLgTKaDh-1007" target="dV1n4wa-xcsjoLgTKaDh-1058" edge="1"><mxGeometry relative="1" as="geometry"/></mxCell><mxCell id="dV1n4wa-xcsjoLgTKaDh-1073" style="edgeStyle=orthogonalEdgeStyle;rounded=0;orthogonalLoop=1;jettySize=auto;html=1;entryX=0;entryY=0.5;entryDx=0;entryDy=0;fontColor=#4D4D4D;" parent="1" source="dV1n4wa-xcsjoLgTKaDh-1007" target="dV1n4wa-xcsjoLgTKaDh-1021" edge="1"><mxGeometry relative="1" as="geometry"/></mxCell><mxCell id="dV1n4wa-xcsjoLgTKaDh-1007" value="" style="strokeColor=#dddddd;shadow=1;strokeWidth=1;rounded=1;absoluteArcSize=1;arcSize=2;fillColor=default;gradientColor=none;fontColor=#4D4D4D;" parent="1" vertex="1"><mxGeometry x="720" y="141" width="90" height="44" as="geometry"/></mxCell><mxCell id="dV1n4wa-xcsjoLgTKaDh-1008" value="Task" style="sketch=0;dashed=0;connectable=0;html=1;fillColor=#757575;strokeColor=none;shape=mxgraph.gcp2.task_queues;part=1;labelPosition=right;verticalLabelPosition=middle;align=left;verticalAlign=middle;spacingLeft=5;fontSize=12;fontColor=#4D4D4D;" parent="dV1n4wa-xcsjoLgTKaDh-1007" vertex="1"><mxGeometry y="0.5" width="32" height="32" relative="1" as="geometry"><mxPoint x="5" y="-16" as="offset"/></mxGeometry></mxCell><mxCell id="dV1n4wa-xcsjoLgTKaDh-1028" value="IP" style="edgeStyle=orthogonalEdgeStyle;rounded=0;orthogonalLoop=1;jettySize=auto;html=1;fontColor=#4D4D4D;" parent="1" source="dV1n4wa-xcsjoLgTKaDh-1011" target="dV1n4wa-xcsjoLgTKaDh-1005" edge="1"><mxGeometry relative="1" as="geometry"/></mxCell><mxCell id="dV1n4wa-xcsjoLgTKaDh-1031" value="HTTPS" style="edgeStyle=orthogonalEdgeStyle;rounded=0;orthogonalLoop=1;jettySize=auto;html=1;entryX=0;entryY=0.5;entryDx=0;entryDy=0;fontColor=#4D4D4D;" parent="1" source="dV1n4wa-xcsjoLgTKaDh-1011" target="dV1n4wa-xcsjoLgTKaDh-1013" edge="1"><mxGeometry x="-0.3898" relative="1" as="geometry"><mxPoint as="offset"/></mxGeometry></mxCell><mxCell id="dV1n4wa-xcsjoLgTKaDh-1011" value="" style="shadow=1;strokeWidth=1;rounded=1;absoluteArcSize=1;arcSize=2;fontColor=#4D4D4D;fillColor=#F5F5F5;" parent="1" vertex="1"><mxGeometry x="40" y="62" width="120" height="44" as="geometry"/></mxCell><mxCell id="dV1n4wa-xcsjoLgTKaDh-1012" value="Server" style="sketch=0;dashed=0;connectable=0;html=1;fillColor=#757575;strokeColor=none;shape=mxgraph.gcp2.dedicated_game_server;part=1;labelPosition=right;verticalLabelPosition=middle;align=left;verticalAlign=middle;spacingLeft=5;fontSize=12;fontColor=#4D4D4D;" parent="dV1n4wa-xcsjoLgTKaDh-1011" vertex="1"><mxGeometry y="0.5" width="32" height="32" relative="1" as="geometry"><mxPoint x="5" y="-16" as="offset"/></mxGeometry></mxCell><mxCell id="dV1n4wa-xcsjoLgTKaDh-1032" style="edgeStyle=orthogonalEdgeStyle;rounded=0;orthogonalLoop=1;jettySize=auto;html=1;entryX=0.25;entryY=1;entryDx=0;entryDy=0;fontColor=#4D4D4D;" parent="1" source="dV1n4wa-xcsjoLgTKaDh-1013" target="dV1n4wa-xcsjoLgTKaDh-1005" edge="1"><mxGeometry relative="1" as="geometry"/></mxCell><mxCell id="dV1n4wa-xcsjoLgTKaDh-1013" value="" style="shadow=1;strokeWidth=1;rounded=1;absoluteArcSize=1;arcSize=2;fontColor=#4D4D4D;fillColor=#F5F5F5;" parent="1" vertex="1"><mxGeometry x="150" y="152" width="100" height="44" as="geometry"/></mxCell><mxCell id="dV1n4wa-xcsjoLgTKaDh-1014" value="Gateway" style="sketch=0;dashed=0;connectable=0;html=1;fillColor=#757575;strokeColor=none;shape=mxgraph.gcp2.gateway;part=1;labelPosition=right;verticalLabelPosition=middle;align=left;verticalAlign=middle;spacingLeft=5;fontSize=12;fontColor=#4D4D4D;" parent="dV1n4wa-xcsjoLgTKaDh-1013" vertex="1"><mxGeometry y="0.5" width="32" height="32" relative="1" as="geometry"><mxPoint x="5" y="-16" as="offset"/></mxGeometry></mxCell><mxCell id="dV1n4wa-xcsjoLgTKaDh-1067" style="edgeStyle=orthogonalEdgeStyle;rounded=0;orthogonalLoop=1;jettySize=auto;html=1;entryX=1;entryY=0.5;entryDx=0;entryDy=0;fontColor=#4D4D4D;" parent="1" source="dV1n4wa-xcsjoLgTKaDh-1015" target="dV1n4wa-xcsjoLgTKaDh-1058" edge="1"><mxGeometry relative="1" as="geometry"><mxPoint x="1030" y="414" as="targetPoint"/><Array as="points"><mxPoint x="1020" y="163"/><mxPoint x="1020" y="406"/></Array></mxGeometry></mxCell><mxCell id="dV1n4wa-xcsjoLgTKaDh-1015" value="" style="strokeColor=#6c8ebf;shadow=1;strokeWidth=1;rounded=1;absoluteArcSize=1;arcSize=2;fillColor=#dae8fc;fontColor=#4D4D4D;" parent="1" vertex="1"><mxGeometry x="880" y="141" width="110" height="44" as="geometry"/></mxCell><mxCell id="dV1n4wa-xcsjoLgTKaDh-1016" value="Application&#10;System(s)" style="sketch=0;dashed=0;connectable=0;html=1;fillColor=#757575;strokeColor=none;shape=mxgraph.gcp2.application_system;part=1;labelPosition=right;verticalLabelPosition=middle;align=left;verticalAlign=middle;spacingLeft=5;fontSize=12;fontColor=#4D4D4D;" parent="dV1n4wa-xcsjoLgTKaDh-1015" vertex="1"><mxGeometry y="0.5" width="32" height="32" relative="1" as="geometry"><mxPoint x="5" y="-16" as="offset"/></mxGeometry></mxCell><mxCell id="dV1n4wa-xcsjoLgTKaDh-1066" style="edgeStyle=orthogonalEdgeStyle;rounded=0;orthogonalLoop=1;jettySize=auto;html=1;entryX=1;entryY=0.5;entryDx=0;entryDy=0;fontColor=#4D4D4D;" parent="1" source="dV1n4wa-xcsjoLgTKaDh-1019" target="dV1n4wa-xcsjoLgTKaDh-1058" edge="1"><mxGeometry relative="1" as="geometry"><mxPoint x="1020" y="264" as="targetPoint"/><Array as="points"><mxPoint x="1010" y="236"/><mxPoint x="1010" y="406"/></Array></mxGeometry></mxCell><mxCell id="dV1n4wa-xcsjoLgTKaDh-1019" value="" style="strokeColor=#6c8ebf;shadow=1;strokeWidth=1;rounded=1;absoluteArcSize=1;arcSize=2;fillColor=#dae8fc;fontColor=#4D4D4D;" parent="1" vertex="1"><mxGeometry x="880" y="214" width="110" height="44" as="geometry"/></mxCell><mxCell id="dV1n4wa-xcsjoLgTKaDh-1020" value="Scheduled&#10;Tasks" style="sketch=0;dashed=0;connectable=0;html=1;fillColor=#757575;strokeColor=none;shape=mxgraph.gcp2.scheduled_tasks;part=1;labelPosition=right;verticalLabelPosition=middle;align=left;verticalAlign=middle;spacingLeft=5;fontSize=12;fontColor=#4D4D4D;" parent="dV1n4wa-xcsjoLgTKaDh-1019" vertex="1"><mxGeometry y="0.5" width="32" height="32" relative="1" as="geometry"><mxPoint x="5" y="-16" as="offset"/></mxGeometry></mxCell><mxCell id="dV1n4wa-xcsjoLgTKaDh-1068" style="edgeStyle=orthogonalEdgeStyle;rounded=0;orthogonalLoop=1;jettySize=auto;html=1;entryX=1;entryY=0.5;entryDx=0;entryDy=0;fontColor=#4D4D4D;" parent="1" source="dV1n4wa-xcsjoLgTKaDh-1021" target="dV1n4wa-xcsjoLgTKaDh-1058" edge="1"><mxGeometry relative="1" as="geometry"><Array as="points"><mxPoint x="1030" y="84"/><mxPoint x="1030" y="406"/></Array></mxGeometry></mxCell><mxCell id="dV1n4wa-xcsjoLgTKaDh-1021" value="" style="strokeColor=#6c8ebf;shadow=1;strokeWidth=1;rounded=1;absoluteArcSize=1;arcSize=2;fillColor=#dae8fc;fontColor=#4D4D4D;" parent="1" vertex="1"><mxGeometry x="880" y="65.25" width="130" height="44" as="geometry"/></mxCell><mxCell id="dV1n4wa-xcsjoLgTKaDh-1022" value="Persistent&#10;Disk Snapshot" style="sketch=0;dashed=0;connectable=0;html=1;fillColor=#757575;strokeColor=none;shape=mxgraph.gcp2.persistent_disk_snapshot;part=1;labelPosition=right;verticalLabelPosition=middle;align=left;verticalAlign=middle;spacingLeft=5;fontSize=12;fontColor=#4D4D4D;" parent="dV1n4wa-xcsjoLgTKaDh-1021" vertex="1"><mxGeometry y="0.5" width="32" height="32" relative="1" as="geometry"><mxPoint x="5" y="-16" as="offset"/></mxGeometry></mxCell><mxCell id="dV1n4wa-xcsjoLgTKaDh-1065" style="edgeStyle=orthogonalEdgeStyle;rounded=0;orthogonalLoop=1;jettySize=auto;html=1;entryX=1;entryY=0.5;entryDx=0;entryDy=0;fontColor=#4D4D4D;" parent="1" source="dV1n4wa-xcsjoLgTKaDh-1025" target="dV1n4wa-xcsjoLgTKaDh-1058" edge="1"><mxGeometry relative="1" as="geometry"><Array as="points"><mxPoint x="1000" y="322"/><mxPoint x="1000" y="406"/></Array></mxGeometry></mxCell><mxCell id="dV1n4wa-xcsjoLgTKaDh-1025" value="" style="strokeColor=#6c8ebf;shadow=1;strokeWidth=1;rounded=1;absoluteArcSize=1;arcSize=2;fillColor=#dae8fc;fontColor=#4D4D4D;" parent="1" vertex="1"><mxGeometry x="880" y="294" width="110" height="56" as="geometry"/></mxCell><mxCell id="dV1n4wa-xcsjoLgTKaDh-1026" value="Push&#10;Notification&#10;Service" style="sketch=0;dashed=0;connectable=0;html=1;fillColor=#757575;strokeColor=none;shape=mxgraph.gcp2.push_notification_service;part=1;labelPosition=right;verticalLabelPosition=middle;align=left;verticalAlign=middle;spacingLeft=5;fontSize=12;fontColor=#4D4D4D;" parent="dV1n4wa-xcsjoLgTKaDh-1025" vertex="1"><mxGeometry y="0.5" width="32" height="32" relative="1" as="geometry"><mxPoint x="5" y="-16" as="offset"/></mxGeometry></mxCell><mxCell id="dV1n4wa-xcsjoLgTKaDh-1054" style="edgeStyle=orthogonalEdgeStyle;rounded=0;orthogonalLoop=1;jettySize=auto;html=1;entryX=0.5;entryY=0.16;entryDx=0;entryDy=0;entryPerimeter=0;fontColor=#4D4D4D;" parent="1" source="dV1n4wa-xcsjoLgTKaDh-1039" target="dV1n4wa-xcsjoLgTKaDh-1053" edge="1"><mxGeometry relative="1" as="geometry"/></mxCell><mxCell id="dV1n4wa-xcsjoLgTKaDh-1039" value="" style="shadow=1;strokeWidth=1;rounded=1;absoluteArcSize=1;arcSize=2;fillColor=#f5f5f5;strokeColor=#666666;fontColor=#4D4D4D;" parent="1" vertex="1"><mxGeometry x="450" y="58.75" width="130" height="50.5" as="geometry"/></mxCell><mxCell id="dV1n4wa-xcsjoLgTKaDh-1040" value="Platform Web" style="sketch=0;dashed=0;connectable=0;html=1;fillColor=#757575;strokeColor=none;shape=mxgraph.gcp2.frontend_platform_services;part=1;labelPosition=right;verticalLabelPosition=middle;align=left;verticalAlign=middle;spacingLeft=5;fontSize=12;fontColor=#4D4D4D;" parent="dV1n4wa-xcsjoLgTKaDh-1039" vertex="1"><mxGeometry y="0.5" width="32" height="32" relative="1" as="geometry"><mxPoint x="5" y="-16" as="offset"/></mxGeometry></mxCell><mxCell id="dV1n4wa-xcsjoLgTKaDh-1055" style="edgeStyle=orthogonalEdgeStyle;rounded=0;orthogonalLoop=1;jettySize=auto;html=1;entryX=0.175;entryY=0.5;entryDx=0;entryDy=0;entryPerimeter=0;fontColor=#4D4D4D;" parent="1" source="dV1n4wa-xcsjoLgTKaDh-1041" target="dV1n4wa-xcsjoLgTKaDh-1053" edge="1"><mxGeometry relative="1" as="geometry"><mxPoint x="632" y="163" as="targetPoint"/><Array as="points"><mxPoint x="610" y="163"/><mxPoint x="610" y="163"/></Array></mxGeometry></mxCell><mxCell id="dV1n4wa-xcsjoLgTKaDh-1041" value="" style="shadow=1;strokeWidth=1;rounded=1;absoluteArcSize=1;arcSize=2;fillColor=#f5f5f5;strokeColor=#666666;fontColor=#4D4D4D;" parent="1" vertex="1"><mxGeometry x="450" y="133.75" width="150.42000000000002" height="54" as="geometry"/></mxCell><mxCell id="dV1n4wa-xcsjoLgTKaDh-1042" value="Manager System" style="sketch=0;dashed=0;connectable=0;html=1;fillColor=#757575;strokeColor=none;shape=mxgraph.gcp2.frontend_platform_services;part=1;labelPosition=right;verticalLabelPosition=middle;align=left;verticalAlign=middle;spacingLeft=5;fontSize=12;fontColor=#4D4D4D;" parent="dV1n4wa-xcsjoLgTKaDh-1041" vertex="1"><mxGeometry y="0.5" width="32" height="32" relative="1" as="geometry"><mxPoint x="5" y="-16" as="offset"/></mxGeometry></mxCell><mxCell id="dV1n4wa-xcsjoLgTKaDh-1056" style="edgeStyle=orthogonalEdgeStyle;rounded=0;orthogonalLoop=1;jettySize=auto;html=1;entryX=0.5;entryY=0.84;entryDx=0;entryDy=0;entryPerimeter=0;fontColor=#4D4D4D;" parent="1" source="dV1n4wa-xcsjoLgTKaDh-1045" target="dV1n4wa-xcsjoLgTKaDh-1053" edge="1"><mxGeometry relative="1" as="geometry"/></mxCell><mxCell id="dV1n4wa-xcsjoLgTKaDh-1045" value="" style="shadow=1;strokeWidth=1;rounded=1;absoluteArcSize=1;arcSize=2;fillColor=#f5f5f5;strokeColor=#666666;fontColor=#4D4D4D;" parent="1" vertex="1"><mxGeometry x="450.42" y="214" width="150" height="44" as="geometry"/></mxCell><mxCell id="dV1n4wa-xcsjoLgTKaDh-1046" value="REST API" style="sketch=0;dashed=0;connectable=0;html=1;fillColor=#757575;strokeColor=none;shape=mxgraph.gcp2.frontend_platform_services;part=1;labelPosition=right;verticalLabelPosition=middle;align=left;verticalAlign=middle;spacingLeft=5;fontSize=12;fontColor=#4D4D4D;" parent="dV1n4wa-xcsjoLgTKaDh-1045" vertex="1"><mxGeometry y="0.5" width="32" height="32" relative="1" as="geometry"><mxPoint x="5" y="-16" as="offset"/></mxGeometry></mxCell><mxCell id="dV1n4wa-xcsjoLgTKaDh-1074" style="edgeStyle=orthogonalEdgeStyle;rounded=0;orthogonalLoop=1;jettySize=auto;html=1;entryX=-0.027;entryY=0.497;entryDx=0;entryDy=0;entryPerimeter=0;exitX=0.825;exitY=0.5;exitDx=0;exitDy=0;exitPerimeter=0;fontColor=#4D4D4D;" parent="1" source="dV1n4wa-xcsjoLgTKaDh-1053" target="dV1n4wa-xcsjoLgTKaDh-1007" edge="1"><mxGeometry relative="1" as="geometry"/></mxCell><mxCell id="dV1n4wa-xcsjoLgTKaDh-1053" value="" style="sketch=0;html=1;fillColor=#5184F3;strokeColor=none;verticalAlign=top;labelPosition=center;verticalLabelPosition=bottom;align=center;spacingTop=-6;fontSize=11;fontStyle=1;shape=mxgraph.gcp2.hexIcon;prIcon=cloud_iam;fontColor=#4D4D4D;" parent="1" vertex="1"><mxGeometry x="630" y="133.75" width="66" height="58.5" as="geometry"/></mxCell><mxCell id="dV1n4wa-xcsjoLgTKaDh-1058" value="" style="strokeColor=#6c8ebf;shadow=1;strokeWidth=1;rounded=1;absoluteArcSize=1;arcSize=2;fillColor=#dae8fc;fontColor=#4D4D4D;" parent="1" vertex="1"><mxGeometry x="880" y="384" width="100" height="44" as="geometry"/></mxCell><mxCell id="dV1n4wa-xcsjoLgTKaDh-1059" value="Logs API" style="sketch=0;dashed=0;connectable=0;html=1;fillColor=#757575;strokeColor=none;shape=mxgraph.gcp2.logs_api;part=1;labelPosition=right;verticalLabelPosition=middle;align=left;verticalAlign=middle;spacingLeft=5;fontSize=12;fontColor=#4D4D4D;" parent="dV1n4wa-xcsjoLgTKaDh-1058" vertex="1"><mxGeometry y="0.5" width="32" height="32" relative="1" as="geometry"><mxPoint x="5" y="-16" as="offset"/></mxGeometry></mxCell><mxCell id="dV1n4wa-xcsjoLgTKaDh-1080" value="" style="sketch=0;dashed=0;connectable=0;html=1;fillColor=#5184F3;strokeColor=none;shape=mxgraph.gcp2.hexIcon;prIcon=cloud_routes;part=1;labelPosition=right;verticalLabelPosition=middle;align=left;verticalAlign=middle;spacingLeft=5;fontSize=12;fontColor=#4D4D4D;" parent="1" vertex="1"><mxGeometry x="270" y="64.13" width="44" height="39" as="geometry"/></mxCell><mxCell id="3" value="" style="edgeStyle=orthogonalEdgeStyle;rounded=0;orthogonalLoop=1;jettySize=auto;html=1;fontColor=#4D4D4D;" edge="1" parent="1" source="dV1n4wa-xcsjoLgTKaDh-1081" target="dV1n4wa-xcsjoLgTKaDh-1039"><mxGeometry relative="1" as="geometry"/></mxCell><mxCell id="dV1n4wa-xcsjoLgTKaDh-1081" value="&lt;span style=&quot;text-align: left&quot;&gt;Proxy&lt;/span&gt;" style="text;html=1;align=center;verticalAlign=middle;resizable=0;points=[];autosize=1;strokeColor=none;fillColor=none;fontColor=#4D4D4D;" parent="1" vertex="1"><mxGeometry x="304" y="73.63" width="50" height="20" as="geometry"/></mxCell></root></mxGraphModel></diagram></mxfile>